<mxfile host="65bd71144e">
    <diagram id="3UM1Va-yNBoQVojBkCAc" name="Page-1">
        <mxGraphModel dx="1025" dy="734" grid="1" gridSize="10" guides="1" tooltips="1" connect="1" arrows="1" fold="1" page="1" pageScale="1" pageWidth="850" pageHeight="1100" background="#ffffff" math="0" shadow="0">
            <root>
                <mxCell id="0"/>
                <mxCell id="1" parent="0"/>
                <mxCell id="2" value="Usuario" style="swimlane;fontStyle=1;align=center;verticalAlign=top;childLayout=stackLayout;horizontal=1;startSize=55;horizontalStack=0;resizeParent=1;resizeParentMax=0;resizeLast=0;collapsible=0;marginBottom=0;html=1;fillColor=none;strokeColor=#000000;fontColor=#000000;" parent="1" vertex="1">
                    <mxGeometry x="190" y="170" width="200" height="188" as="geometry"/>
                </mxCell>
                <mxCell id="3" value="- nombre" style="text;html=1;strokeColor=none;fillColor=none;align=left;verticalAlign=middle;spacingLeft=4;spacingRight=4;overflow=hidden;rotatable=0;points=[[0,0.5],[1,0.5]];portConstraint=eastwest;fontColor=#000000;" parent="2" vertex="1">
                    <mxGeometry y="55" width="200" height="25" as="geometry"/>
                </mxCell>
                <mxCell id="4" value="- contraseÃ±a" style="text;html=1;strokeColor=none;fillColor=none;align=left;verticalAlign=middle;spacingLeft=4;spacingRight=4;overflow=hidden;rotatable=0;points=[[0,0.5],[1,0.5]];portConstraint=eastwest;fontColor=#000000;" parent="2" vertex="1">
                    <mxGeometry y="80" width="200" height="20" as="geometry"/>
                </mxCell>
                <mxCell id="7" value="" style="line;strokeWidth=1;fillColor=none;align=left;verticalAlign=middle;spacingTop=-1;spacingLeft=3;spacingRight=3;rotatable=0;labelPosition=right;points=[];portConstraint=eastwest;fontColor=#000000;strokeColor=#000000;" parent="2" vertex="1">
                    <mxGeometry y="100" width="200" height="8" as="geometry"/>
                </mxCell>
                <mxCell id="8" value="+ autorizacion()" style="text;html=1;strokeColor=none;fillColor=none;align=left;verticalAlign=middle;spacingLeft=4;spacingRight=4;overflow=hidden;rotatable=0;points=[[0,0.5],[1,0.5]];portConstraint=eastwest;fontColor=#000000;" parent="2" vertex="1">
                    <mxGeometry y="108" width="200" height="20" as="geometry"/>
                </mxCell>
                <mxCell id="9" value="+ verificarCredenciales()" style="text;html=1;strokeColor=none;fillColor=none;align=left;verticalAlign=middle;spacingLeft=4;spacingRight=4;overflow=hidden;rotatable=0;points=[[0,0.5],[1,0.5]];portConstraint=eastwest;fontColor=#000000;" parent="2" vertex="1">
                    <mxGeometry y="128" width="200" height="20" as="geometry"/>
                </mxCell>
                <mxCell id="27" value="+ verCatalago()" style="text;html=1;strokeColor=none;fillColor=none;align=left;verticalAlign=middle;spacingLeft=4;spacingRight=4;overflow=hidden;rotatable=0;points=[[0,0.5],[1,0.5]];portConstraint=eastwest;fontColor=#000000;" parent="2" vertex="1">
                    <mxGeometry y="148" width="200" height="20" as="geometry"/>
                </mxCell>
                <mxCell id="26" value="+ buscarProductos()" style="text;html=1;strokeColor=none;fillColor=none;align=left;verticalAlign=middle;spacingLeft=4;spacingRight=4;overflow=hidden;rotatable=0;points=[[0,0.5],[1,0.5]];portConstraint=eastwest;fontColor=#000000;" parent="2" vertex="1">
                    <mxGeometry y="168" width="200" height="20" as="geometry"/>
                </mxCell>
                <mxCell id="49" value="SistemaDePago" style="swimlane;fontStyle=1;align=center;verticalAlign=top;childLayout=stackLayout;horizontal=1;startSize=55;horizontalStack=0;resizeParent=1;resizeParentMax=0;resizeLast=0;collapsible=0;marginBottom=0;html=1;fillColor=none;strokeColor=#000000;fontColor=#000000;" parent="1" vertex="1">
                    <mxGeometry x="530" y="170" width="200" height="83" as="geometry"/>
                </mxCell>
                <mxCell id="52" value="" style="line;strokeWidth=1;fillColor=none;align=left;verticalAlign=middle;spacingTop=-1;spacingLeft=3;spacingRight=3;rotatable=0;labelPosition=right;points=[];portConstraint=eastwest;fontColor=#000000;strokeColor=#000000;" parent="49" vertex="1">
                    <mxGeometry y="55" width="200" height="8" as="geometry"/>
                </mxCell>
                <mxCell id="53" value="+ verificarPago()" style="text;html=1;strokeColor=none;fillColor=none;align=left;verticalAlign=middle;spacingLeft=4;spacingRight=4;overflow=hidden;rotatable=0;points=[[0,0.5],[1,0.5]];portConstraint=eastwest;fontColor=#000000;" parent="49" vertex="1">
                    <mxGeometry y="63" width="200" height="20" as="geometry"/>
                </mxCell>
                <mxCell id="61" value="" style="endArrow=none;html=1;rounded=0;align=center;verticalAlign=top;endFill=0;labelBackgroundColor=none;strokeColor=#000000;entryX=0;entryY=0.25;entryDx=0;entryDy=0;exitX=0.995;exitY=0.108;exitDx=0;exitDy=0;exitPerimeter=0;fontColor=#000000;" parent="1" source="2" target="49" edge="1">
                    <mxGeometry relative="1" as="geometry">
                        <mxPoint x="350" y="380" as="sourcePoint"/>
                        <mxPoint x="510" y="380" as="targetPoint"/>
                    </mxGeometry>
                </mxCell>
                <mxCell id="62" value="0..*" style="resizable=0;html=1;align=left;verticalAlign=bottom;labelBackgroundColor=none;fontColor=#000000;" parent="61" connectable="0" vertex="1">
                    <mxGeometry x="-1" relative="1" as="geometry"/>
                </mxCell>
                <mxCell id="64" value="1" style="resizable=0;html=1;align=right;verticalAlign=bottom;labelBackgroundColor=none;fontColor=#000000;" parent="61" connectable="0" vertex="1">
                    <mxGeometry x="1" relative="1" as="geometry"/>
                </mxCell>
                <mxCell id="65" value="Administrador" style="swimlane;fontStyle=1;align=center;verticalAlign=top;childLayout=stackLayout;horizontal=1;startSize=55;horizontalStack=0;resizeParent=1;resizeParentMax=0;resizeLast=0;collapsible=0;marginBottom=0;html=1;fillColor=none;strokeColor=#000000;fontColor=#000000;" vertex="1" parent="1">
                    <mxGeometry x="30" y="520" width="200" height="103" as="geometry"/>
                </mxCell>
                <mxCell id="68" value="" style="line;strokeWidth=1;fillColor=none;align=left;verticalAlign=middle;spacingTop=-1;spacingLeft=3;spacingRight=3;rotatable=0;labelPosition=right;points=[];portConstraint=eastwest;fontColor=#000000;strokeColor=#000000;" vertex="1" parent="65">
                    <mxGeometry y="55" width="200" height="8" as="geometry"/>
                </mxCell>
                <mxCell id="73" value="+ gestionarCatalogo()" style="text;html=1;strokeColor=none;fillColor=none;align=left;verticalAlign=middle;spacingLeft=4;spacingRight=4;overflow=hidden;rotatable=0;points=[[0,0.5],[1,0.5]];portConstraint=eastwest;fontColor=#000000;" vertex="1" parent="65">
                    <mxGeometry y="63" width="200" height="20" as="geometry"/>
                </mxCell>
                <mxCell id="74" value="+ gestionarPedidos()" style="text;html=1;strokeColor=none;fillColor=none;align=left;verticalAlign=middle;spacingLeft=4;spacingRight=4;overflow=hidden;rotatable=0;points=[[0,0.5],[1,0.5]];portConstraint=eastwest;fontColor=#000000;" vertex="1" parent="65">
                    <mxGeometry y="83" width="200" height="20" as="geometry"/>
                </mxCell>
                <mxCell id="77" value="Cliente" style="swimlane;fontStyle=1;align=center;verticalAlign=top;childLayout=stackLayout;horizontal=1;startSize=55;horizontalStack=0;resizeParent=1;resizeParentMax=0;resizeLast=0;collapsible=0;marginBottom=0;html=1;fillColor=none;strokeColor=#000000;fontColor=#000000;" vertex="1" parent="1">
                    <mxGeometry x="380" y="520" width="200" height="103" as="geometry"/>
                </mxCell>
                <mxCell id="80" value="" style="line;strokeWidth=1;fillColor=none;align=left;verticalAlign=middle;spacingTop=-1;spacingLeft=3;spacingRight=3;rotatable=0;labelPosition=right;points=[];portConstraint=eastwest;fontColor=#000000;strokeColor=#000000;" vertex="1" parent="77">
                    <mxGeometry y="55" width="200" height="8" as="geometry"/>
                </mxCell>
                <mxCell id="81" value="+ gestionarSuPedido()" style="text;html=1;strokeColor=none;fillColor=none;align=left;verticalAlign=middle;spacingLeft=4;spacingRight=4;overflow=hidden;rotatable=0;points=[[0,0.5],[1,0.5]];portConstraint=eastwest;fontColor=#000000;" vertex="1" parent="77">
                    <mxGeometry y="63" width="200" height="20" as="geometry"/>
                </mxCell>
                <mxCell id="82" value="+ realizarCompra()" style="text;html=1;strokeColor=none;fillColor=none;align=left;verticalAlign=middle;spacingLeft=4;spacingRight=4;overflow=hidden;rotatable=0;points=[[0,0.5],[1,0.5]];portConstraint=eastwest;fontColor=#000000;" vertex="1" parent="77">
                    <mxGeometry y="83" width="200" height="20" as="geometry"/>
                </mxCell>
                <mxCell id="89" value="" style="endArrow=block;html=1;rounded=0;align=center;verticalAlign=bottom;endFill=0;labelBackgroundColor=none;endSize=8;strokeColor=#000000;exitX=0.375;exitY=-0.016;exitDx=0;exitDy=0;exitPerimeter=0;entryX=0.4;entryY=1.1;entryDx=0;entryDy=0;entryPerimeter=0;" edge="1" parent="1" source="65" target="26">
                    <mxGeometry relative="1" as="geometry">
                        <mxPoint x="420" y="300" as="sourcePoint"/>
                        <mxPoint x="580" y="300" as="targetPoint"/>
                    </mxGeometry>
                </mxCell>
                <mxCell id="91" value="" style="endArrow=block;html=1;rounded=0;align=center;verticalAlign=bottom;endFill=0;labelBackgroundColor=none;endSize=8;strokeColor=#000000;exitX=0.378;exitY=-0.036;exitDx=0;exitDy=0;exitPerimeter=0;entryX=0.482;entryY=1.05;entryDx=0;entryDy=0;entryPerimeter=0;" edge="1" parent="1" source="77" target="26">
                    <mxGeometry relative="1" as="geometry">
                        <mxPoint x="115" y="528.3520000000001" as="sourcePoint"/>
                        <mxPoint x="280" y="370" as="targetPoint"/>
                    </mxGeometry>
                </mxCell>
            </root>
        </mxGraphModel>
    </diagram>
</mxfile>